<?xml version="1.0" encoding="UTF-8" standalone="no"?><svg xmlns="http://www.w3.org/2000/svg" xmlns:xlink="http://www.w3.org/1999/xlink" contentScriptType="application/ecmascript" contentStyleType="text/css" height="829px" preserveAspectRatio="none" style="width:464px;height:829px;" version="1.1" viewBox="0 0 464 829" width="464px" zoomAndPan="magnify"><defs><filter height="300%" id="f1vk8pir14ourg" width="300%" x="-1" y="-1"><feGaussianBlur result="blurOut" stdDeviation="2.0"/><feColorMatrix in="blurOut" result="blurOut2" type="matrix" values="0 0 0 0 0 0 0 0 0 0 0 0 0 0 0 0 0 0 .4 0"/><feOffset dx="4.0" dy="4.0" in="blurOut2" result="blurOut3"/><feBlend in="SourceGraphic" in2="blurOut3" mode="normal"/></filter></defs><g><text fill="#000000" font-family="sans-serif" font-size="18" lengthAdjust="spacingAndGlyphs" textLength="161" x="150.75" y="30.8799">notebook overview</text><ellipse cx="137" cy="46.0638" fill="#000000" filter="url(#f1vk8pir14ourg)" rx="10" ry="10" style="stroke: none; stroke-width: 1.0;"/><rect fill="#FEFECE" filter="url(#f1vk8pir14ourg)" height="54.7522" rx="12.5" ry="12.5" style="stroke: #A80036; stroke-width: 1.5;" width="254" x="10" y="76.0638"/><text fill="#000000" font-family="sans-serif" font-size="12" lengthAdjust="spacingAndGlyphs" textLength="234" x="20" y="99.9839">오늘의 영화랭킹 맨 앞 5페이지의 주소를 만든다</text><text fill="#000000" font-family="sans-serif" font-size="12" lengthAdjust="spacingAndGlyphs" textLength="201" x="20" y="117.3601">list_rank_page_url 리스트에 저장한다</text><rect fill="#FEFECE" filter="url(#f1vk8pir14ourg)" height="72.1284" rx="12.5" ry="12.5" style="stroke: #A80036; stroke-width: 1.5;" width="229" x="22.5" y="150.8161"/><text fill="#000000" font-family="sans-serif" font-size="12" lengthAdjust="spacingAndGlyphs" textLength="209" x="32.5" y="174.7362">오늘의 영화랭킹 맨 앞 5페이지를 확인해서</text><text fill="#000000" font-family="sans-serif" font-size="12" lengthAdjust="spacingAndGlyphs" textLength="176" x="35.5" y="192.1123">랭킹에 오른 영화들의 id를 가져온다</text><text fill="#000000" font-family="sans-serif" font-size="12" lengthAdjust="spacingAndGlyphs" textLength="185" x="32.5" y="209.4884">df_id_title 데이터프레임에 저장한다</text><rect fill="#FFFFFF" filter="url(#f1vk8pir14ourg)" height="487.0239" style="stroke: #000000; stroke-width: 2.0;" width="435" x="18.5" y="234.4764"/><path d="M65.5,235.4764 L65.5,247.7483 L55.5,257.7483 L18.5,257.7483 " fill="none" style="stroke: #000000; stroke-width: 2.0;"/><text fill="#000000" font-family="sans-serif" font-size="14" lengthAdjust="spacingAndGlyphs" textLength="37" x="21.5" y="251.7164">Outer</text><rect fill="#FFFFFF" filter="url(#f1vk8pir14ourg)" height="333.8439" style="stroke: #000000; stroke-width: 2.0;" width="314" x="36.5" y="323.6564"/><path d="M81.5,324.6564 L81.5,336.9284 L71.5,346.9284 L36.5,346.9284 " fill="none" style="stroke: #000000; stroke-width: 2.0;"/><text fill="#000000" font-family="sans-serif" font-size="14" lengthAdjust="spacingAndGlyphs" textLength="35" x="39.5" y="340.8964">Inner</text><rect fill="#B6CEC7" filter="url(#f1vk8pir14ourg)" height="37.3761" rx="12.5" ry="12.5" style="stroke: #A80036; stroke-width: 1.5;" width="84" x="95" y="479.1242"/><text fill="#000000" font-family="sans-serif" font-size="12" lengthAdjust="spacingAndGlyphs" textLength="64" x="105" y="503.0443">return task</text><ellipse cx="137" cy="561.5003" fill="none" filter="url(#f1vk8pir14ourg)" rx="10" ry="10" style="stroke: #000000; stroke-width: 1.0;"/><ellipse cx="137.5" cy="562.0003" fill="#000000" filter="url(#f1vk8pir14ourg)" rx="6" ry="6" style="stroke: none; stroke-width: 1.0;"/><polygon fill="#FEFECE" filter="url(#f1vk8pir14ourg)" points="58.5,421.3045,215.5,421.3045,227.5,437.2324,215.5,453.1602,58.5,453.1602,46.5,437.2324,58.5,421.3045" style="stroke: #A80036; stroke-width: 1.5;"/><text fill="#000000" font-family="sans-serif" font-size="11" lengthAdjust="spacingAndGlyphs" textLength="17" x="141" y="465.9201">yes</text><text fill="#000000" font-family="sans-serif" font-size="11" lengthAdjust="spacingAndGlyphs" textLength="81" x="58.5" y="434.0644">TASK is idle and</text><text fill="#000000" font-family="sans-serif" font-size="11" lengthAdjust="spacingAndGlyphs" textLength="157" x="58.5" y="449.9923">TASK can be run on MAX_CPU?</text><rect fill="#FEFECE" filter="url(#f1vk8pir14ourg)" height="37.3761" rx="12.5" ry="12.5" style="stroke: #A80036; stroke-width: 1.5;" width="129" x="72.5" y="363.9284"/><text fill="#000000" font-family="sans-serif" font-size="12" lengthAdjust="spacingAndGlyphs" textLength="109" x="82.5" y="387.8485">get TASK from LIST</text><polygon fill="#FEFECE" filter="url(#f1vk8pir14ourg)" points="96.5,613.5003,177.5,613.5003,189.5,625.5003,177.5,637.5003,96.5,637.5003,84.5,625.5003,96.5,613.5003" style="stroke: #A80036; stroke-width: 1.5;"/><text fill="#000000" font-family="sans-serif" font-size="11" lengthAdjust="spacingAndGlyphs" textLength="14" x="141" y="650.2602">no</text><text fill="#000000" font-family="sans-serif" font-size="11" lengthAdjust="spacingAndGlyphs" textLength="81" x="96.5" y="630.2963">TASK available?</text><text fill="#000000" font-family="sans-serif" font-size="11" lengthAdjust="spacingAndGlyphs" textLength="17" x="189.5" y="622.3323">yes</text><rect fill="#FEFECE" filter="url(#f1vk8pir14ourg)" height="37.3761" rx="12.5" ry="12.5" style="stroke: #A80036; stroke-width: 1.5;" width="77" x="263.5" y="487.0082"/><text fill="#000000" font-family="sans-serif" font-size="12" lengthAdjust="spacingAndGlyphs" textLength="57" x="273.5" y="510.9283">next TASK</text><rect fill="#FEFECE" filter="url(#f1vk8pir14ourg)" height="37.3761" rx="12.5" ry="12.5" style="stroke: #A80036; stroke-width: 1.5;" width="217" x="28.5" y="274.7483"/><text fill="#000000" font-family="sans-serif" font-size="12" lengthAdjust="spacingAndGlyphs" textLength="197" x="38.5" y="298.6684">LIST = wrr_rq.weight_arr[WEIGHT]</text><polygon fill="#FEFECE" filter="url(#f1vk8pir14ourg)" points="104.5,677.5003,169.5,677.5003,181.5,689.5003,169.5,701.5003,104.5,701.5003,92.5,689.5003,104.5,677.5003" style="stroke: #A80036; stroke-width: 1.5;"/><text fill="#000000" font-family="sans-serif" font-size="11" lengthAdjust="spacingAndGlyphs" textLength="14" x="141" y="714.2602">no</text><text fill="#000000" font-family="sans-serif" font-size="11" lengthAdjust="spacingAndGlyphs" textLength="65" x="104.5" y="694.2963">WEIGHT &gt; 0 ?</text><text fill="#000000" font-family="sans-serif" font-size="11" lengthAdjust="spacingAndGlyphs" textLength="17" x="181.5" y="686.3323">yes</text><rect fill="#FEFECE" filter="url(#f1vk8pir14ourg)" height="54.7522" rx="12.5" ry="12.5" style="stroke: #A80036; stroke-width: 1.5;" width="83" x="360.5" y="461.4962"/><text fill="#000000" font-family="sans-serif" font-size="12" lengthAdjust="spacingAndGlyphs" textLength="56" x="370.5" y="485.4163">WEIGHT =</text><text fill="#000000" font-family="sans-serif" font-size="12" lengthAdjust="spacingAndGlyphs" textLength="63" x="370.5" y="502.7924">WEIGHT - 1</text><rect fill="#FEFECE" filter="url(#f1vk8pir14ourg)" height="37.3761" rx="12.5" ry="12.5" style="stroke: #A80036; stroke-width: 1.5;" width="168" x="53" y="741.5003"/><text fill="#000000" font-family="sans-serif" font-size="12" lengthAdjust="spacingAndGlyphs" textLength="148" x="63" y="765.4204">return "Migration Unable"</text><ellipse cx="137" cy="808.8764" fill="none" filter="url(#f1vk8pir14ourg)" rx="10" ry="10" style="stroke: #000000; stroke-width: 1.0;"/><ellipse cx="137.5" cy="809.3764" fill="#000000" filter="url(#f1vk8pir14ourg)" rx="6" ry="6" style="stroke: none; stroke-width: 1.0;"/><line style="stroke: #A80036; stroke-width: 1.5;" x1="137" x2="137" y1="56.0638" y2="76.0638"/><polygon fill="#A80036" points="133,66.0638,137,76.0638,141,66.0638,137,70.0638" style="stroke: #A80036; stroke-width: 1.0;"/><line style="stroke: #A80036; stroke-width: 1.5;" x1="137" x2="137" y1="130.8161" y2="150.8161"/><polygon fill="#A80036" points="133,140.8161,137,150.8161,141,140.8161,137,144.8161" style="stroke: #A80036; stroke-width: 1.0;"/><line style="stroke: #A80036; stroke-width: 1.5;" x1="137" x2="137" y1="516.5003" y2="551.5003"/><polygon fill="#A80036" points="133,541.5003,137,551.5003,141,541.5003,137,545.5003" style="stroke: #A80036; stroke-width: 1.0;"/><line style="stroke: #A80036; stroke-width: 1.5;" x1="137" x2="137" y1="453.1602" y2="479.1242"/><polygon fill="#A80036" points="133,469.1242,137,479.1242,141,469.1242,137,473.1242" style="stroke: #A80036; stroke-width: 1.0;"/><line style="stroke: #A80036; stroke-width: 1.5;" x1="227.5" x2="239.5" y1="437.2324" y2="437.2324"/><polygon fill="#A80036" points="235.5,510.3483,239.5,520.3483,243.5,510.3483,239.5,514.3483" style="stroke: #A80036; stroke-width: 1.5;"/><line style="stroke: #A80036; stroke-width: 1.5;" x1="239.5" x2="239.5" y1="437.2324" y2="593.5003"/><line style="stroke: #A80036; stroke-width: 1.5;" x1="239.5" x2="137" y1="593.5003" y2="593.5003"/><line style="stroke: #A80036; stroke-width: 1.5;" x1="137" x2="137" y1="593.5003" y2="613.5003"/><polygon fill="#A80036" points="133,603.5003,137,613.5003,141,603.5003,137,607.5003" style="stroke: #A80036; stroke-width: 1.0;"/><line style="stroke: #A80036; stroke-width: 1.5;" x1="137" x2="137" y1="401.3045" y2="421.3045"/><polygon fill="#A80036" points="133,411.3045,137,421.3045,141,411.3045,137,415.3045" style="stroke: #A80036; stroke-width: 1.0;"/><line style="stroke: #A80036; stroke-width: 1.5;" x1="189.5" x2="302" y1="625.5003" y2="625.5003"/><line style="stroke: #A80036; stroke-width: 1.5;" x1="302" x2="302" y1="524.3844" y2="625.5003"/><polygon fill="#A80036" points="298,534.3844,302,524.3844,306,534.3844,302,530.3844" style="stroke: #A80036; stroke-width: 1.0;"/><polygon fill="#A80036" points="298,430.8123,302,420.8123,306,430.8123,302,426.8123" style="stroke: #A80036; stroke-width: 1.5;"/><line style="stroke: #A80036; stroke-width: 1.5;" x1="302" x2="302" y1="382.6164" y2="487.0082"/><line style="stroke: #A80036; stroke-width: 1.5;" x1="302" x2="201.5" y1="382.6164" y2="382.6164"/><polygon fill="#A80036" points="211.5,378.6164,201.5,382.6164,211.5,386.6164,207.5,382.6164" style="stroke: #A80036; stroke-width: 1.0;"/><line style="stroke: #A80036; stroke-width: 1.5;" x1="137" x2="137" y1="312.1245" y2="363.9284"/><polygon fill="#A80036" points="133,353.9284,137,363.9284,141,353.9284,137,357.9284" style="stroke: #A80036; stroke-width: 1.0;"/><line style="stroke: #A80036; stroke-width: 1.5;" x1="181.5" x2="402" y1="689.5003" y2="689.5003"/><line style="stroke: #A80036; stroke-width: 1.5;" x1="402" x2="402" y1="516.2484" y2="689.5003"/><polygon fill="#A80036" points="398,526.2484,402,516.2484,406,526.2484,402,522.2484" style="stroke: #A80036; stroke-width: 1.0;"/><polygon fill="#A80036" points="398,383.2323,402,373.2323,406,383.2323,402,379.2323" style="stroke: #A80036; stroke-width: 1.5;"/><line style="stroke: #A80036; stroke-width: 1.5;" x1="402" x2="402" y1="293.4364" y2="461.4962"/><line style="stroke: #A80036; stroke-width: 1.5;" x1="402" x2="245.5" y1="293.4364" y2="293.4364"/><polygon fill="#A80036" points="255.5,289.4364,245.5,293.4364,255.5,297.4364,251.5,293.4364" style="stroke: #A80036; stroke-width: 1.0;"/><line style="stroke: #A80036; stroke-width: 1.5;" x1="137" x2="137" y1="637.5003" y2="677.5003"/><polygon fill="#A80036" points="133,667.5003,137,677.5003,141,667.5003,137,671.5003" style="stroke: #A80036; stroke-width: 1.0;"/><line style="stroke: #A80036; stroke-width: 1.5;" x1="137" x2="137" y1="222.9444" y2="274.7483"/><polygon fill="#A80036" points="133,264.7483,137,274.7483,141,264.7483,137,268.7483" style="stroke: #A80036; stroke-width: 1.0;"/><line style="stroke: #A80036; stroke-width: 1.5;" x1="137" x2="137" y1="701.5003" y2="741.5003"/><polygon fill="#A80036" points="133,731.5003,137,741.5003,141,731.5003,137,735.5003" style="stroke: #A80036; stroke-width: 1.0;"/><line style="stroke: #A80036; stroke-width: 1.5;" x1="137" x2="137" y1="778.8764" y2="798.8764"/><polygon fill="#A80036" points="133,788.8764,137,798.8764,141,788.8764,137,792.8764" style="stroke: #A80036; stroke-width: 1.0;"/><!--
@startuml
title notebook overview
start
:오늘의 영화랭킹 맨 앞 5페이지의 주소를 만든다\nlist_rank_page_url 리스트에 저장한다;
:오늘의 영화랭킹 맨 앞 5페이지를 확인해서\n 랭킹에 오른 영화들의 id를 가져온다\ndf_id_title 데이터프레임에 저장한다;
group Outer
repeat:LIST = wrr_rq.weight_arr[WEIGHT];
    group Inner
    repeat:get TASK from LIST;
        if (TASK is idle and\nTASK can be run on MAX_CPU?) then (yes)
            #B6CEC7:return task;
            stop
        endif
    backward:next TASK;
    repeat while (TASK available?) is (yes) not (no)
    end group
backward:WEIGHT =\nWEIGHT - 1;
repeat while (WEIGHT > 0 ?) is (yes) not (no)
end group
:return "Migration Unable";
stop
@enduml

PlantUML version 1.2018.13(Tue Nov 27 02:11:51 KST 2018)
(GPL source distribution)
Java Runtime: OpenJDK Runtime Environment
JVM: OpenJDK 64-Bit Server VM
Java Version: 11.0.15+10-Ubuntu-0ubuntu0.20.04.1
Operating System: Linux
OS Version: 5.13.0-40-generic
Default Encoding: UTF-8
Language: ko
Country: KR
--></g></svg>